# xmcd CD database file
#
# Track frame offsets:
#	182
#	14577
#	27290
#	42517
#	55480
#	68350
#	81577
#	96962
#	111677
#	126765
#	139165
#	154867
#	168200
#	180855
#	195330
#	208595
#	220170
#	232585
#	248810
#	261885
#	274782
#	286902
#
# Disc length: 4007 seconds
#
# Revision: 0
# Processed by: cddbd v1.4PL0 Copyright (c) Steve Scherf et al.
# Submitted via: CDex 1.50Beta7
#
DISCID=3a0fa516
DTITLE=Art Tatum - Giants Of Jazz (feat.E.Marksdale and S.Stewart)
DYEAR=1949
DGENRE=Blues
TTITLE0=Tea For Two
TTITLE1=Nice Work If You Can Get It
TTITLE2=September Song
TTITLE3=Dardanella
TTITLE4=Out Of Nowhere
TTITLE5=Willow Weep For Me
TTITLE6=Melody in F
TTITLE7=You Took Advantage Of Me
TTITLE8=Just One Of Those Things
TTITLE9=Makin' Whoopee
TTITLE10=Indiana
TTITLE11=I Gotta Right To Sing The Blues
TTITLE12=Somebody Love Me
TTITLE13=Lover
TTITLE14=Don't Blame Me
TTITLE15=I Cover The Waterfront
TTITLE16=Aunt Hagar's Blues
TTITLE17=Would You Like To Take A Walk
TTITLE18=Blue Skies
TTITLE19=Someone To Watch Over Me
TTITLE20=Sweet Lorraine
TTITLE21=Time On My Hands
EXTD=YEAR: 1949
EXTT0=
EXTT1=
EXTT2=
EXTT3=
EXTT4=
EXTT5=
EXTT6=
EXTT7=
EXTT8=
EXTT9=
EXTT10=
EXTT11=
EXTT12=
EXTT13=
EXTT14=
EXTT15=
EXTT16=
EXTT17=
EXTT18=
EXTT19=
EXTT20=
EXTT21=
PLAYORDER=
